<svg xmlns="http://www.w3.org/2000/svg" viewBox="0 0 252.55 177.12"><title>c</title><path d="M266.86,151.1c-6.38,1.19-12.1,6.81-11.81,14,.16,4.15,2.13,9-.27,12-1.71,2.16-4.85,2-7.6,1.66-13.52-1.88-56.22-39.86-60.8-54.14-.95-2.88-1.7-6.3-.21-8.61,2.09-3.26,6.81-2.18,10.48-2.93,6.4-1.24,10-8.68,9.72-15.85s-3.81-14.09-7.64-20.34c-4.5-7.29-9.94-14.39-17.13-18.2-20.44-10.78-31.79,14.65-33,32.15-.76,11.27,1.28,22.86,4.75,33.87,7.36,23.52,78.73,87,101,89.91,10.44,1.35,21,1,30.7-2.26,15.11-5.13,35-23,21-42.81-4.9-7-12.34-11.34-19.71-14.59C280.05,152.17,273.24,149.91,266.86,151.1Zm70.92-59.38,59.4,41.37a13.7,13.7,0,0,1-8.26,2.66H245.08a13.74,13.74,0,0,1-8.29-2.64l59.43-41.39L317,106.5Zm-20.78,5L236.82,40.91a13.7,13.7,0,0,1,8.26-2.66H388.92a13.74,13.74,0,0,1,8.29,2.64Zm84,31.06-58-40,58-41v81Zm-168,0v-81l58,41-58,40Z" transform="translate(-148.45 -38.25)"/></svg>